<svg xmlns="http://www.w3.org/2000/svg" viewBox="0 0 500 500"><g id="freepik--background-simple--inject-2"><path d="M464.5,130.56q-2.38-4-5-7.9C436.33,88.31,396.44,64.82,357.2,54.2a231.87,231.87,0,0,0-52.71-7.69c-116.62-3.95-163.07,88-201.61,111.67S5,222.42,9,307.41s65.22,165,183.81,170S319.31,429,385.52,409.2c43.82-13.08,75-57.26,90.2-98.09C496.5,255.47,495.52,183.2,464.5,130.56Z" style="fill:#92E3A9"></path><path d="M464.5,130.56q-2.38-4-5-7.9C436.33,88.31,396.44,64.82,357.2,54.2a231.87,231.87,0,0,0-52.71-7.69c-116.62-3.95-163.07,88-201.61,111.67S5,222.42,9,307.41s65.22,165,183.81,170S319.31,429,385.52,409.2c43.82-13.08,75-57.26,90.2-98.09C496.5,255.47,495.52,183.2,464.5,130.56Z" style="fill:#fff;opacity:0.7000000000000001"></path></g><g id="freepik--Wall--inject-2"><rect x="420" y="270.03" width="42" height="17" style="opacity:0.2"></rect><rect x="283.38" y="132.78" width="42" height="17" style="opacity:0.2"></rect><rect x="257.51" y="158.47" width="42" height="17" style="opacity:0.2"></rect><rect x="285.96" y="45.62" width="42" height="17" style="opacity:0.2"></rect><rect x="252" y="251.79" width="42" height="17" style="opacity:0.2"></rect><rect x="169.2" y="99.99" width="42" height="17" style="opacity:0.2"></rect><rect x="215.2" y="99.99" width="42" height="17" style="opacity:0.2"></rect><rect x="180" y="377.5" width="42" height="17" style="opacity:0.2"></rect><rect x="158" y="398.5" width="42" height="17" style="opacity:0.2"></rect><rect x="234.51" y="181.97" width="42" height="17" style="opacity:0.1"></rect><rect x="172.38" y="57.7" width="42" height="17" style="opacity:0.1"></rect><rect x="444" y="310.79" width="42" height="17" style="opacity:0.1"></rect><rect x="198" y="336.79" width="42" height="17" style="opacity:0.1"></rect><rect x="246" y="336.79" width="42" height="17" style="opacity:0.1"></rect><rect x="250" y="312.79" width="42" height="17" style="opacity:0.1"></rect><rect x="282.51" y="181.97" width="42" height="17" style="opacity:0.1"></rect><rect x="304" y="396.79" width="42" height="17" style="opacity:0.2"></rect><rect x="281" y="420.29" width="42" height="17" style="opacity:0.1"></rect><rect x="329" y="420.29" width="42" height="17" style="opacity:0.1"></rect><rect x="100.39" y="185.2" width="42" height="17" style="opacity:0.2"></rect><rect x="77.39" y="208.7" width="42" height="17" style="opacity:0.1"></rect><rect x="125.39" y="208.7" width="42" height="17" style="opacity:0.1"></rect><rect x="84" y="311.79" width="42" height="17" style="opacity:0.2"></rect><rect x="270" y="230.5" width="42" height="17" style="opacity:0.1"></rect><rect x="207" y="397.5" width="42" height="17" style="opacity:0.1"></rect><rect x="193.2" y="78.99" width="42" height="17" style="opacity:0.1"></rect><rect x="60" y="255.5" width="42" height="17" style="opacity:0.2"></rect><rect x="84" y="234.5" width="42" height="17" style="opacity:0.1"></rect><rect x="191" y="132.29" width="42" height="17" style="opacity:0.1"></rect><rect x="129.77" y="142.27" width="42" height="17" style="opacity:0.1"></rect><rect x="337" y="270.03" width="42" height="17" style="opacity:0.2"></rect><rect x="30.53" y="364.06" width="42" height="17" style="opacity:0.2"></rect><rect x="12.39" y="125.2" width="42" height="17" style="opacity:0.1"></rect><rect x="60.39" y="125.2" width="42" height="17" style="opacity:0.1"></rect><rect x="64.39" y="101.2" width="42" height="17" style="opacity:0.1"></rect><rect x="33" y="169.5" width="42" height="17" style="opacity:0.1"></rect><rect x="87.53" y="381.56" width="42" height="17" style="opacity:0.2"></rect></g><g id="freepik--trash-can-3--inject-2"><rect x="461.41" y="432.58" width="8.53" height="25.98" style="fill:#263238;stroke:#263238;stroke-linecap:round;stroke-miterlimit:10"></rect><rect x="383.86" y="432.58" width="8.53" height="25.98" style="fill:#263238;stroke:#263238;stroke-linecap:round;stroke-miterlimit:10"></rect><path d="M385.15,278.52H467a4.76,4.76,0,0,1,4.76,4.76v3.18a0,0,0,0,1,0,0H380.38a0,0,0,0,1,0,0v-3.18A4.76,4.76,0,0,1,385.15,278.52Z" style="fill:#263238;stroke:#263238;stroke-linecap:round;stroke-miterlimit:10"></path><path d="M390.75,286.16h71.76a0,0,0,0,1,0,0v169.6a3.56,3.56,0,0,1-3.56,3.56H394.31a3.56,3.56,0,0,1-3.56-3.56V286.16A0,0,0,0,1,390.75,286.16Z" style="fill:#92E3A9;stroke:#263238;stroke-linecap:round;stroke-miterlimit:10"></path><path d="M412.51,377.75h28.22a0,0,0,0,1,0,0v78a3.56,3.56,0,0,1-3.56,3.56H416.07a3.56,3.56,0,0,1-3.56-3.56v-78A0,0,0,0,1,412.51,377.75Z" style="fill:#92E3A9;stroke:#263238;stroke-linecap:round;stroke-miterlimit:10"></path><polygon points="470.73 359.11 462.66 370.51 390.7 370.51 382.53 359.11 382.53 286.16 470.73 286.16 470.73 359.11" style="fill:#92E3A9;stroke:#263238;stroke-linecap:round;stroke-miterlimit:10"></polygon><path d="M414.68,340.91a2.35,2.35,0,0,1-1.4-.37,2.11,2.11,0,0,1-.74-1.06,5.25,5.25,0,0,1-.23-1.63v-3a5.68,5.68,0,0,1,.22-1.65,2,2,0,0,1,.78-1.06,2.71,2.71,0,0,1,1.53-.37,2.91,2.91,0,0,1,1.46.31,1.79,1.79,0,0,1,.77.88,3.71,3.71,0,0,1,.24,1.41v.46h-1.55v-.51a3.84,3.84,0,0,0-.06-.73.77.77,0,0,0-.25-.47.84.84,0,0,0-.58-.16.83.83,0,0,0-.63.21,1.11,1.11,0,0,0-.24.55,5.78,5.78,0,0,0-.05.75v3.73a3.8,3.8,0,0,0,.08.8.92.92,0,0,0,.29.52.87.87,0,0,0,.59.18.79.79,0,0,0,.6-.2,1.08,1.08,0,0,0,.3-.55,4,4,0,0,0,.08-.83v-.84h-1v-1h2.42v4.52h-1l-.12-.88a1.76,1.76,0,0,1-.54.72A1.51,1.51,0,0,1,414.68,340.91Z" style="fill:#263238"></path><path d="M418.59,340.79v-8.91h1.63v7.79h2.16v1.12Z" style="fill:#263238"></path><path d="M422.77,340.79l1.79-8.91h1.74l1.78,8.91h-1.51l-.35-2.06h-1.55l-.37,2.06Zm2.06-3.09H426l-.6-3.74Z" style="fill:#263238"></path><path d="M431.17,340.91a2.58,2.58,0,0,1-1.34-.31,2,2,0,0,1-.82-.92,4,4,0,0,1-.31-1.49l1.4-.27a4,4,0,0,0,.13.91,1.22,1.22,0,0,0,.32.61.73.73,0,0,0,.56.22.62.62,0,0,0,.56-.24,1,1,0,0,0,.17-.6,1.6,1.6,0,0,0-.27-1,4.3,4.3,0,0,0-.7-.74l-1.12-1a3.58,3.58,0,0,1-.76-.91,2.58,2.58,0,0,1-.28-1.24,2.12,2.12,0,0,1,.62-1.63,2.37,2.37,0,0,1,1.68-.57,2.66,2.66,0,0,1,1.05.19,1.61,1.61,0,0,1,.66.54,2.2,2.2,0,0,1,.37.77,5.35,5.35,0,0,1,.16.92l-1.39.24a6.82,6.82,0,0,0-.09-.74,1,1,0,0,0-.26-.52A.67.67,0,0,0,431,333a.68.68,0,0,0-.56.24,1,1,0,0,0-.19.59,1.31,1.31,0,0,0,.19.74,2.86,2.86,0,0,0,.54.6l1.11,1a4.63,4.63,0,0,1,.94,1.08,2.79,2.79,0,0,1,.39,1.5,2.24,2.24,0,0,1-.28,1.14,2.13,2.13,0,0,1-.78.77A2.33,2.33,0,0,1,431.17,340.91Z" style="fill:#263238"></path><path d="M436.51,340.91a2.63,2.63,0,0,1-1.34-.31,2,2,0,0,1-.81-.92,3.78,3.78,0,0,1-.31-1.49l1.4-.27a4,4,0,0,0,.12.91,1.31,1.31,0,0,0,.32.61.74.74,0,0,0,.57.22.63.63,0,0,0,.56-.24,1,1,0,0,0,.16-.6,1.6,1.6,0,0,0-.26-1,4.73,4.73,0,0,0-.7-.74l-1.13-1a3.75,3.75,0,0,1-.75-.91,2.47,2.47,0,0,1-.28-1.24,2.09,2.09,0,0,1,.62-1.63,2.37,2.37,0,0,1,1.68-.57,2.58,2.58,0,0,1,1,.19,1.71,1.71,0,0,1,.67.54,2.39,2.39,0,0,1,.37.77,4.53,4.53,0,0,1,.15.92l-1.38.24a4.91,4.91,0,0,0-.1-.74,1,1,0,0,0-.25-.52.69.69,0,0,0-.53-.19.67.67,0,0,0-.56.24.89.89,0,0,0-.19.59,1.4,1.4,0,0,0,.18.74,3.55,3.55,0,0,0,.54.6l1.12,1a5.14,5.14,0,0,1,.94,1.08,2.79,2.79,0,0,1,.39,1.5,2.35,2.35,0,0,1-.28,1.14,2.09,2.09,0,0,1-.79.77A2.3,2.3,0,0,1,436.51,340.91Z" style="fill:#263238"></path><g id="freepik--dhgKEQ.tif--inject-2"><path d="M437.07,356.05c-1.26,2-2.51,4.07-3.78,6.1a1.72,1.72,0,0,1-1.59.86h-2.51v1.81l-.12,0-.66-1.13c-.56-1-1.12-2-1.67-2.94a.6.6,0,0,1,0-.47c.77-1.47,1.57-2.93,2.42-4.51V358h3.62l-2.82-4.93,4.59-2.65,2.56,4.66Z" style="fill:#fff"></path><path d="M423.51,343.92c.2,0,.4.08.6.09l5.35.07a1.77,1.77,0,0,1,1.71,1c.37.7.8,1.37,1.22,2.08l1.61-.92.06.06-1.2,2.19c-.35.64-.7,1.29-1.06,1.92-.07.12-.22.27-.34.27-1.67.1-3.33.17-5,.16l1.79-1.06c-.61-1-1.2-2-1.84-3.14-1,1.71-1.88,3.36-2.8,5L419,349.11l.67-1.23c.41-.75.86-1.48,1.24-2.25a3.08,3.08,0,0,1,1.86-1.71Z" style="fill:#fff"></path><path d="M417.06,352.33l-1.61-1v-.09h1.79c.81,0,1.62.05,2.43,0a1.14,1.14,0,0,1,1.24.68c.74,1.29,1.55,2.55,2.28,3.88l-1.84-1.1-1.82,3.16h5.67v5.29h-4.38a2.38,2.38,0,0,1-2.23-1.36c-.92-1.78-1.83-3.56-2.79-5.32a1.92,1.92,0,0,1,.05-2.14C416.28,353.71,416.64,353,417.06,352.33Z" style="fill:#fff"></path></g><polygon points="455.87 327.86 397.38 327.86 392.22 286.16 461.03 286.16 455.87 327.86" style="fill:none;stroke:#263238;stroke-linecap:round;stroke-miterlimit:10"></polygon><rect x="377.45" y="286.16" width="98.36" height="9.27" style="fill:#92E3A9;stroke:#263238;stroke-linecap:round;stroke-miterlimit:10"></rect><line x1="402.76" y1="327.37" x2="402.76" y2="310.44" style="fill:none;stroke:#263238;stroke-linecap:round;stroke-miterlimit:10"></line><line x1="414.18" y1="327.37" x2="414.18" y2="307.29" style="fill:none;stroke:#263238;stroke-linecap:round;stroke-miterlimit:10"></line><line x1="425.6" y1="327.37" x2="425.6" y2="300.99" style="fill:none;stroke:#263238;stroke-linecap:round;stroke-miterlimit:10"></line><line x1="437.03" y1="327.37" x2="437.03" y2="307.29" style="fill:none;stroke:#263238;stroke-linecap:round;stroke-miterlimit:10"></line><line x1="448.45" y1="327.37" x2="448.45" y2="310.44" style="fill:none;stroke:#263238;stroke-linecap:round;stroke-miterlimit:10"></line></g><g id="freepik--trash-can-2--inject-2"><rect x="352.93" y="432.58" width="8.53" height="25.98" style="fill:#263238;stroke:#263238;stroke-linecap:round;stroke-miterlimit:10"></rect><rect x="275.38" y="432.58" width="8.53" height="25.98" style="fill:#263238;stroke:#263238;stroke-linecap:round;stroke-miterlimit:10"></rect><path d="M276.67,278.52h81.88a4.77,4.77,0,0,1,4.77,4.77v3.18a0,0,0,0,1,0,0H271.9a0,0,0,0,1,0,0v-3.18A4.77,4.77,0,0,1,276.67,278.52Z" style="fill:#263238;stroke:#263238;stroke-linecap:round;stroke-miterlimit:10"></path><path d="M282.27,286.16H354a0,0,0,0,1,0,0v169.6a3.56,3.56,0,0,1-3.56,3.56H285.83a3.56,3.56,0,0,1-3.56-3.56V286.16A0,0,0,0,1,282.27,286.16Z" style="fill:#92E3A9;stroke:#263238;stroke-linecap:round;stroke-miterlimit:10"></path><path d="M304,377.75h28.22a0,0,0,0,1,0,0v78a3.56,3.56,0,0,1-3.56,3.56H307.59a3.56,3.56,0,0,1-3.56-3.56v-78A0,0,0,0,1,304,377.75Z" style="fill:#92E3A9;stroke:#263238;stroke-linecap:round;stroke-miterlimit:10"></path><polygon points="362.25 359.11 354.19 370.51 282.23 370.51 274.05 359.11 274.05 286.16 362.25 286.16 362.25 359.11" style="fill:#92E3A9;stroke:#263238;stroke-linecap:round;stroke-miterlimit:10"></polygon><path d="M300.88,340v-8.91h2.62a2.5,2.5,0,0,1,1.3.3,1.79,1.79,0,0,1,.74.86,3.54,3.54,0,0,1,.23,1.37,2.94,2.94,0,0,1-.29,1.4,1.79,1.79,0,0,1-.83.78,3.08,3.08,0,0,1-1.26.24h-.88v4Zm1.63-5.1h.61a1.44,1.44,0,0,0,.69-.13.64.64,0,0,0,.34-.41,2.42,2.42,0,0,0,.1-.75,3.43,3.43,0,0,0-.08-.79.65.65,0,0,0-.3-.44,1.47,1.47,0,0,0-.75-.14h-.61Z" style="fill:#263238"></path><path d="M306.63,340v-8.91h1.63v7.79h2.16V340Z" style="fill:#263238"></path><path d="M310.81,340l1.78-8.91h1.74l1.78,8.91h-1.5l-.36-2.06H312.7l-.36,2.06Zm2.06-3.09h1.21l-.61-3.74Z" style="fill:#263238"></path><path d="M319.21,340.09a2.64,2.64,0,0,1-1.35-.31,2,2,0,0,1-.81-.92,4,4,0,0,1-.31-1.48l1.4-.28a3.94,3.94,0,0,0,.12.91,1.31,1.31,0,0,0,.32.61.77.77,0,0,0,.57.22.63.63,0,0,0,.56-.24,1,1,0,0,0,.17-.6,1.55,1.55,0,0,0-.27-.95,4,4,0,0,0-.7-.75l-1.12-1a3.41,3.41,0,0,1-.76-.91,2.58,2.58,0,0,1-.28-1.24,2.14,2.14,0,0,1,.62-1.63,2.37,2.37,0,0,1,1.68-.57,2.49,2.49,0,0,1,1.05.2,1.51,1.51,0,0,1,.66.53,2.29,2.29,0,0,1,.37.77,4.53,4.53,0,0,1,.15.92l-1.38.24a5.1,5.1,0,0,0-.1-.74,1,1,0,0,0-.25-.52.73.73,0,0,0-.53-.19.68.68,0,0,0-.56.24.89.89,0,0,0-.19.59,1.29,1.29,0,0,0,.19.74,2.86,2.86,0,0,0,.54.6l1.11,1a4.87,4.87,0,0,1,.94,1.08,2.79,2.79,0,0,1,.39,1.5,2.35,2.35,0,0,1-.28,1.14,2.06,2.06,0,0,1-.78.77A2.36,2.36,0,0,1,319.21,340.09Z" style="fill:#263238"></path><path d="M323.29,340v-7.71h-1.42v-1.2h4.44v1.2h-1.4V340Z" style="fill:#263238"></path><path d="M327.17,340v-8.91h1.6V340Z" style="fill:#263238"></path><path d="M332.55,340.09a2.72,2.72,0,0,1-1.54-.38,2,2,0,0,1-.77-1,4.85,4.85,0,0,1-.22-1.54v-3.18a5,5,0,0,1,.22-1.58,1.84,1.84,0,0,1,.77-1,2.72,2.72,0,0,1,1.54-.37,2.77,2.77,0,0,1,1.44.32,1.73,1.73,0,0,1,.75.89,4,4,0,0,1,.22,1.36v.74h-1.57v-.77c0-.25,0-.47,0-.68a.92.92,0,0,0-.21-.49.8.8,0,0,0-.59-.18.83.83,0,0,0-.61.19.94.94,0,0,0-.25.52,4.12,4.12,0,0,0-.05.73v3.87a3.54,3.54,0,0,0,.07.8.82.82,0,0,0,.28.47.87.87,0,0,0,.56.16.75.75,0,0,0,.58-.19,1,1,0,0,0,.21-.51,5.2,5.2,0,0,0,0-.72v-.8H335v.72a4.34,4.34,0,0,1-.21,1.4,1.86,1.86,0,0,1-.73,1A2.67,2.67,0,0,1,332.55,340.09Z" style="fill:#263238"></path><g id="freepik--dhgkeqtif--inject-2"><path d="M328.31,356.05l-3.78,6.1a1.72,1.72,0,0,1-1.59.86h-2.51v1.81l-.12,0-.66-1.13c-.56-1-1.12-2-1.67-2.94a.6.6,0,0,1,0-.47c.77-1.47,1.57-2.93,2.41-4.51V358H324l-2.82-4.93,4.59-2.65,2.56,4.66Z" style="fill:#fff"></path><path d="M314.74,343.92c.21,0,.41.08.61.09l5.35.07a1.78,1.78,0,0,1,1.71,1c.37.7.79,1.37,1.22,2.08l1.61-.92.06.06-1.2,2.19c-.35.64-.7,1.29-1.07,1.92-.07.12-.21.27-.33.27-1.67.1-3.33.17-5,.16l1.8-1.06c-.61-1-1.2-2-1.85-3.14-.95,1.71-1.87,3.36-2.79,5l-4.62-2.55.68-1.23c.41-.75.86-1.48,1.23-2.25a3.12,3.12,0,0,1,1.87-1.71Z" style="fill:#fff"></path><path d="M308.3,352.33l-1.62-1,0-.09h1.78c.82,0,1.63.05,2.44,0a1.14,1.14,0,0,1,1.24.68c.73,1.29,1.54,2.55,2.27,3.88l-1.83-1.1-1.83,3.16h5.68v5.29h-4.38a2.37,2.37,0,0,1-2.23-1.36c-.92-1.78-1.84-3.56-2.79-5.32a1.9,1.9,0,0,1,.05-2.14C307.52,353.71,307.88,353,308.3,352.33Z" style="fill:#fff"></path></g><polygon points="347.39 327.86 288.9 327.86 283.74 286.16 352.55 286.16 347.39 327.86" style="fill:none;stroke:#263238;stroke-linecap:round;stroke-miterlimit:10"></polygon><rect x="268.97" y="286.16" width="98.36" height="9.27" style="fill:#92E3A9;stroke:#263238;stroke-linecap:round;stroke-miterlimit:10"></rect><line x1="294.28" y1="327.37" x2="294.28" y2="310.44" style="fill:none;stroke:#263238;stroke-linecap:round;stroke-miterlimit:10"></line><line x1="305.7" y1="327.37" x2="305.7" y2="307.29" style="fill:none;stroke:#263238;stroke-linecap:round;stroke-miterlimit:10"></line><line x1="317.13" y1="327.37" x2="317.13" y2="300.99" style="fill:none;stroke:#263238;stroke-linecap:round;stroke-miterlimit:10"></line><line x1="328.55" y1="327.37" x2="328.55" y2="307.29" style="fill:none;stroke:#263238;stroke-linecap:round;stroke-miterlimit:10"></line><line x1="339.97" y1="327.37" x2="339.97" y2="310.44" style="fill:none;stroke:#263238;stroke-linecap:round;stroke-miterlimit:10"></line></g><g id="freepik--trash-can-1--inject-2"><path d="M254.44,285.56H167.26s-5.38-85.52,0-91.62c10.38-11.77,78.69-9.64,87.18,0C260.39,200.68,254.44,285.56,254.44,285.56Z" style="fill:#263238;stroke:#263238;stroke-linecap:round;stroke-miterlimit:10"></path><rect x="178.43" y="206.26" width="65.1" height="66.82" rx="14.57" style="fill:#263238;stroke:#fff;stroke-linecap:round;stroke-miterlimit:10"></rect><rect x="245.12" y="432.58" width="8.53" height="25.98" style="fill:#263238;stroke:#263238;stroke-linecap:round;stroke-miterlimit:10"></rect><rect x="167.57" y="432.58" width="8.53" height="25.98" style="fill:#263238;stroke:#263238;stroke-linecap:round;stroke-miterlimit:10"></rect><path d="M174.46,286.16h71.76a0,0,0,0,1,0,0v169.6a3.56,3.56,0,0,1-3.56,3.56H178a3.56,3.56,0,0,1-3.56-3.56V286.16A0,0,0,0,1,174.46,286.16Z" style="fill:#92E3A9;stroke:#263238;stroke-linecap:round;stroke-miterlimit:10"></path><path d="M196.23,377.75h28.22a0,0,0,0,1,0,0v78a3.56,3.56,0,0,1-3.56,3.56H199.79a3.56,3.56,0,0,1-3.56-3.56v-78A0,0,0,0,1,196.23,377.75Z" style="fill:#92E3A9;stroke:#263238;stroke-linecap:round;stroke-miterlimit:10"></path><polygon points="254.44 359.11 246.38 370.51 174.42 370.51 166.24 359.11 166.24 286.16 254.44 286.16 254.44 359.11" style="fill:#92E3A9;stroke:#263238;stroke-linecap:round;stroke-miterlimit:10"></polygon><path d="M197.2,340v-8.91h2.61a2.54,2.54,0,0,1,1.31.3,1.72,1.72,0,0,1,.73.86,3.53,3.53,0,0,1,.24,1.37,2.82,2.82,0,0,1-.3,1.4,1.7,1.7,0,0,1-.83.78,3,3,0,0,1-1.26.24h-.88v4Zm1.62-5.1h.62a1.49,1.49,0,0,0,.69-.13.67.67,0,0,0,.34-.41,2.47,2.47,0,0,0,.09-.75,3.5,3.5,0,0,0-.07-.79.66.66,0,0,0-.31-.44,1.4,1.4,0,0,0-.74-.14h-.62Z" style="fill:#263238"></path><path d="M202.07,340l1.78-8.91h1.74l1.78,8.91h-1.51l-.35-2.06H204L203.6,340Zm2.06-3.09h1.21l-.61-3.74Z" style="fill:#263238"></path><path d="M208.22,340v-8.91h2.62a2.5,2.5,0,0,1,1.3.3,1.79,1.79,0,0,1,.74.86,3.74,3.74,0,0,1,.23,1.37,2.94,2.94,0,0,1-.29,1.4,1.79,1.79,0,0,1-.83.78,3.08,3.08,0,0,1-1.26.24h-.88v4Zm1.63-5.1h.61a1.49,1.49,0,0,0,.69-.13.67.67,0,0,0,.34-.41,2.47,2.47,0,0,0,.09-.75,3.5,3.5,0,0,0-.07-.79.66.66,0,0,0-.31-.44,1.4,1.4,0,0,0-.74-.14h-.61Z" style="fill:#263238"></path><path d="M214,340v-8.91h3.74v1.15H215.6v2.56h1.66v1.13H215.6v3h2.13V340Z" style="fill:#263238"></path><path d="M218.68,340v-8.91h2.13a4.58,4.58,0,0,1,1.53.22,1.69,1.69,0,0,1,.94.73,2.58,2.58,0,0,1,.33,1.41,4.57,4.57,0,0,1-.1,1,1.83,1.83,0,0,1-.34.73,1.44,1.44,0,0,1-.65.47l1.24,4.39h-1.63l-1.08-4.08h-.74V340Zm1.63-5.1h.5a1.78,1.78,0,0,0,.76-.14.82.82,0,0,0,.4-.44,2.13,2.13,0,0,0,.12-.78,1.64,1.64,0,0,0-.25-1,1.08,1.08,0,0,0-.94-.34h-.59Z" style="fill:#263238"></path><g id="freepik--dhgkeqtif--inject-2"><path d="M221.15,356.05l-3.77,6.1a1.74,1.74,0,0,1-1.6.86h-2.51v1.81l-.12,0-.66-1.13c-.56-1-1.12-2-1.67-2.94a.6.6,0,0,1,0-.47c.77-1.47,1.57-2.93,2.42-4.51V358h3.62L214,353.09l4.59-2.65,2.56,4.66Z" style="fill:#fff"></path><path d="M207.59,343.92c.2,0,.4.08.6.09l5.35.07a1.77,1.77,0,0,1,1.71,1c.37.7.8,1.37,1.22,2.08l1.61-.92.06.06-1.2,2.19c-.35.64-.7,1.29-1.06,1.92-.07.12-.22.27-.34.27-1.66.1-3.33.17-5,.16l1.79-1.06c-.61-1-1.2-2-1.84-3.14-1,1.71-1.88,3.36-2.8,5l-4.61-2.55.67-1.23c.41-.75.86-1.48,1.24-2.25a3.08,3.08,0,0,1,1.86-1.71Z" style="fill:#fff"></path><path d="M201.14,352.33l-1.61-1v-.09h1.79c.81,0,1.62.05,2.43,0a1.14,1.14,0,0,1,1.24.68c.74,1.29,1.55,2.55,2.28,3.88l-1.84-1.1-1.82,3.16h5.67v5.29h-4.38a2.38,2.38,0,0,1-2.23-1.36c-.92-1.78-1.83-3.56-2.78-5.32a1.9,1.9,0,0,1,0-2.14C200.36,353.71,200.72,353,201.14,352.33Z" style="fill:#fff"></path></g><polygon points="239.59 327.86 181.09 327.86 175.93 286.16 244.75 286.16 239.59 327.86" style="fill:none;stroke:#263238;stroke-linecap:round;stroke-miterlimit:10"></polygon><rect x="161.16" y="286.16" width="98.36" height="9.27" style="fill:#92E3A9;stroke:#263238;stroke-linecap:round;stroke-miterlimit:10"></rect><line x1="186.47" y1="327.37" x2="186.47" y2="310.44" style="fill:none;stroke:#263238;stroke-linecap:round;stroke-miterlimit:10"></line><line x1="197.89" y1="327.37" x2="197.89" y2="307.29" style="fill:none;stroke:#263238;stroke-linecap:round;stroke-miterlimit:10"></line><line x1="209.32" y1="327.37" x2="209.32" y2="300.99" style="fill:none;stroke:#263238;stroke-linecap:round;stroke-miterlimit:10"></line><line x1="220.74" y1="327.37" x2="220.74" y2="307.29" style="fill:none;stroke:#263238;stroke-linecap:round;stroke-miterlimit:10"></line><line x1="232.16" y1="327.37" x2="232.16" y2="310.44" style="fill:none;stroke:#263238;stroke-linecap:round;stroke-miterlimit:10"></line></g><g id="freepik--Window--inject-2"><path d="M340,25.65V237.72H473.51V25.65ZM468.65,76.59H409.81V33.37h58.84ZM409.81,134.2h58.84v46.31H409.81Zm0-5.65V82.24h58.84v46.31ZM344.88,33.37h58.84V76.59H345.18v5.65h58.54v46.31H345.18v5.65h58.54v46.31H345.18v5.65h58.54V230H344.88ZM409.81,230V186.16h58.84V230Z" style="fill:none;stroke:#263238;stroke-linecap:round;stroke-miterlimit:10"></path><line x1="395.29" y1="46.29" x2="365.6" y2="70.86" style="fill:none;stroke:#263238;stroke-linecap:round;stroke-miterlimit:10"></line><line x1="454.15" y1="94.41" x2="424.46" y2="118.97" style="fill:none;stroke:#263238;stroke-linecap:round;stroke-miterlimit:10"></line><line x1="387.1" y1="198.31" x2="357.41" y2="222.88" style="fill:none;stroke:#263238;stroke-linecap:round;stroke-miterlimit:10"></line><line x1="379.72" y1="53.46" x2="366.11" y2="64.72" style="fill:none;stroke:#263238;stroke-linecap:round;stroke-miterlimit:10"></line><line x1="451.89" y1="88.78" x2="438.28" y2="100.04" style="fill:none;stroke:#263238;stroke-linecap:round;stroke-miterlimit:10"></line><line x1="385.35" y1="205.99" x2="371.74" y2="217.25" style="fill:none;stroke:#263238;stroke-linecap:round;stroke-miterlimit:10"></line><line x1="381.25" y1="151.73" x2="367.65" y2="162.99" style="fill:none;stroke:#263238;stroke-linecap:round;stroke-miterlimit:10"></line><line x1="450.86" y1="199.33" x2="437.26" y2="210.6" style="fill:none;stroke:#263238;stroke-linecap:round;stroke-miterlimit:10"></line><rect x="332.33" y="237.58" width="149.46" height="18.57" style="fill:none;stroke:#263238;stroke-linecap:round;stroke-miterlimit:10"></rect></g><g id="freepik--Plants--inject-2"><path d="M151.62,405.09c-2,2.33-1.4,5.22-1.54,8.3a29.38,29.38,0,0,1-.22,4.24c-.58-1.9-1.22-3.9-2-5.8,0-2.27-.09-5.1-.25-7.24-.22-3.06-1-7.36-4.17-7.2-2.34.13-3,2.26-2.64,4.36.48,2.65,2.32,4.46,4.18,6.69a28.49,28.49,0,0,1,2.46,3.22c.07.13.35.87.4,1v.05h0c.53,1.38,1,2.84,1.44,4.25-.91-1.78-2.21-4.05-3.22-5.63-1.66-2.57-5.07-5.91-7.66-3.14-1.91,2.05-.28,4.33,1.15,5.84,1.81,1.92,3.85,2.25,6.54,2.89a12.87,12.87,0,0,1,3.45,1c.06,0,.1.23.11.29a.47.47,0,0,1,0,.14l.08,0a60,60,0,0,1,1.62,8.13c0,.21,0,.43.06.64-1.34-1.85-2.81-3.8-4.27-5.51-1.86-2.19-5.71-4.76-7.85-1.74-1.57,2.23.1,4.18,1.68,5.4,2,1.55,4.07,1.53,6.74,1.64.65,0,2.89-.18,3.69.34a0,0,0,0,1,0,.07l-.08.09h.09a36.7,36.7,0,0,1,0,4.45c-.2,1.49-.79,3-1.14,4.43a20,20,0,0,0-2.55-4.89c-1.59-2.27-5.06-5.22-7.66-2.93-1.92,1.7-.78,3.8.55,5.17,1.69,1.73,3.73,1.88,6.23,2.31a12.33,12.33,0,0,1,3.31.65c-.57,2.22-1.29,4.41-1.81,6.66a22.77,22.77,0,0,0-3.09-4.45c-1.83-1.91-5.44-3.33-7.63-.95-1.62,1.76-.61,3.59.9,4.64,1.9,1.32,3.79,1,6.25.86.59,0,2.75-.42,3.5,0a22.64,22.64,0,0,0-.76,7.79.15.15,0,0,0-.09,0s.06,0,.08,0,.13.22,0,.14c-1.53-1.16-2.38-2.52-4-3.91-2-1.66-5.58-2.51-7.47.17-1.4,2,.2,3.7,1.86,4.42,2.1.91,3.78.45,6.18-.11.6-.14,2.61-.82,3.44-.5a36.59,36.59,0,0,0,3.25,8.67l.24-.21a34.77,34.77,0,0,1-3.18-8.58,39.92,39.92,0,0,0,5.56,1.17c2.84.26,7-.49,7.81-4,.61-2.57-1.45-3.49-3.53-3.26-2.63.3-4.44,2-6.77,3.69a16.29,16.29,0,0,1-3.07,2.19c-.44-2.55.18-5.11.74-7.67a39.63,39.63,0,0,0,5.47,1.18c2.81.32,6.91-.77,7.71-4.22.58-2.54-1.31-3.68-3.36-3.37-2.59.4-4.05,2.11-6.33,3.84-.54.42-2.47,2.22-3.43,2.45.48-2.1,1.19-4.29,1.75-6.41-.18,0-.32,0,.35-.13a42.22,42.22,0,0,0,5.8-.95c2.31-.67,6.33-3.53,5.53-7-.59-2.6-2.73-2.88-4.55-1.56-2.31,1.66-2.68,3.77-4.24,6.26-.42.65-1.74,3-2.83,3.32h0c.37-1.58,1.06-3.27,1.28-4.84a35,35,0,0,0,0-4.58,27.52,27.52,0,0,0,5.22-1.66c2.86-1.34,5.47-4.6,4.43-8.05-.77-2.55-3-2.89-4.88-1.45-2.34,1.83-2.52,4.24-3.52,7.09a18.17,18.17,0,0,1-1.27,3.63,3.88,3.88,0,0,1-.05-.44,57.29,57.29,0,0,0-1.68-8.3,52.81,52.81,0,0,0,4.52-3.65c2.37-2.25,4.17-6.41,2.29-9.36C155.4,402.94,153.16,403.25,151.62,405.09Z" style="fill:#263238"></path><path d="M117.34,428.77c-.51,1.78.52,3.25,1.21,5a17.11,17.11,0,0,1,.94,2.41c-.8-.91-1.65-1.86-2.54-2.73-.56-1.26-1.32-2.81-2-4-.88-1.64-2.39-3.83-4.11-3-1.27.65-1.11,2-.38,3.08.93,1.35,2.4,1.9,4,2.67a16.66,16.66,0,0,1,2.17,1.18c.07.05.41.39.47.44l0,0h0c.64.64,1.28,1.33,1.86,2-1-.76-2.23-1.7-3.19-2.33-1.56-1-4.29-2-5,.17-.56,1.61.92,2.47,2.1,3,1.48.61,2.69.29,4.35,0a8,8,0,0,1,2.18-.29s.11.11.12.14a.2.2,0,0,1,0,.09l0,0a37.7,37.7,0,0,1,2.93,4.11l.19.34c-1.21-.69-2.51-1.41-3.75-2-1.58-.75-4.36-1.22-4.79,1-.32,1.64,1.09,2.3,2.28,2.59,1.49.36,2.64-.17,4.15-.77a5.82,5.82,0,0,1,2.14-.73s0,0,0,0l0,.07.05,0a25.08,25.08,0,0,1,1.12,2.48,27.69,27.69,0,0,1,.47,2.75,12.47,12.47,0,0,0-2.64-2.09c-1.45-.86-4.11-1.64-5,.29-.65,1.42.51,2.3,1.59,2.73,1.37.54,2.54.12,4-.27a7.34,7.34,0,0,1,2-.46c.24,1.37.38,2.77.65,4.15a13.54,13.54,0,0,0-2.83-1.7c-1.48-.61-3.85-.5-4.47,1.37-.46,1.38.55,2.15,1.65,2.36,1.39.26,2.36-.39,3.69-1.08.32-.17,1.43-.92,2-.88a13.65,13.65,0,0,0,1.52,4.52l0,0h0s.12.09,0,.07c-1.14-.27-2-.81-3.2-1.18-1.5-.44-3.73,0-4.11,2-.29,1.45,1,2,2.13,2,1.4,0,2.21-.69,3.41-1.6.3-.22,1.25-1.1,1.79-1.13a22.45,22.45,0,0,0,4,4l.09-.18a21.07,21.07,0,0,1-3.91-4,23.82,23.82,0,0,0,3.38-.73c1.65-.57,3.76-2,3.35-4.16-.3-1.59-1.67-1.58-2.77-.93-1.39.82-2,2.19-2.85,3.74a9.78,9.78,0,0,1-1.16,2,12.34,12.34,0,0,1-1.5-4.45,24,24,0,0,0,3.33-.71c1.64-.52,3.66-2.15,3.24-4.26-.31-1.56-1.65-1.73-2.71-1-1.34.87-1.72,2.18-2.56,3.71a9.44,9.44,0,0,1-1.29,2.22c-.26-1.29-.41-2.68-.63-4-.1,0-.18.07.16-.16a25.24,25.24,0,0,0,3-2c1.12-.94,2.64-3.53,1.32-5.29-1-1.29-2.24-.92-2.92.27-.87,1.5-.55,2.76-.8,4.53-.07.47-.21,2.11-.74,2.56,0,0,0,0,0,0-.19-1-.22-2.08-.5-3a19.48,19.48,0,0,0-1.15-2.54,16.83,16.83,0,0,0,2.49-2.22c1.26-1.46,1.89-3.93.46-5.58a1.75,1.75,0,0,0-3.08.41c-.84,1.6-.34,3-.19,4.82a11.15,11.15,0,0,1,.21,2.33c0-.05-.09-.15-.14-.23a37.49,37.49,0,0,0-3-4.2,31.89,31.89,0,0,0,1.59-3.15c.76-1.84.72-4.6-1.06-5.78C118.91,426.63,117.74,427.37,117.34,428.77Z" style="fill:#263238"></path></g><g id="freepik--Character--inject-2"><path d="M114.17,153.34s1.39,4.74.79,6.92a19.36,19.36,0,0,0-1,5.53c0,2,4,6.53,1.78,8.31a7.51,7.51,0,0,1-4.35,1.78,62.44,62.44,0,0,1-3,8.7c-1.58,3.36-1.58,3.95-3.76,3.95S99.15,187,99.15,187,95,193.67,94.8,198.22A25.78,25.78,0,0,0,96,207.31c.59,2.38,14.44,25.91,14.24,30.06s-2.77,7.12-3.17,8.9-3.75,49-3.55,53.38-1,24.52-1,24.52l-10.88,1.19L59.2,322.19s-2.76-.59-4.54-17.59,5.14-26.7,8.5-31.05,6.13-12.26,6.13-12.26a90.8,90.8,0,0,1-5.14-38c1.78-21,10.48-30.05,12.65-34.21a45.84,45.84,0,0,0,4.55-13.24c.4-3.36-2.77-4-2.37-10.09s6.13-7.71,11.47-10.28S114.17,153.34,114.17,153.34Z" style="fill:#fff;stroke:#263238;stroke-linecap:round;stroke-miterlimit:10"></path><path d="M102.51,324.17s1.18-20.17,1-24.52c-.1-2,.57-13.15,1.35-24.75-13.92-.57-31.09-4.27-38.8-6.08a31,31,0,0,1-2.89,4.73c-3.36,4.35-10.28,14-8.5,31.05s4.54,17.59,4.54,17.59l32.43,3.17Z" style="fill:#9e9e9e;stroke:#263238;stroke-linecap:round;stroke-miterlimit:10"></path><line x1="91.63" y1="325.36" x2="95.39" y2="302.22" style="fill:none;stroke:#263238;stroke-linecap:round;stroke-miterlimit:10"></line><path d="M73.44,279.48s-5.54,12.26-5.93,25.12.59,16.21.59,16.21" style="fill:none;stroke:#263238;stroke-linecap:round;stroke-miterlimit:10"></path><path d="M71.66,290.75s11.07-5.53,12.06-13.44" style="fill:none;stroke:#263238;stroke-linecap:round;stroke-miterlimit:10"></path><path d="M111,166.5c-.23,1.12-.88,1.94-1.47,1.82s-.89-1.12-.67-2.25.89-1.94,1.48-1.82S111.21,165.37,111,166.5Z" style="fill:#263238"></path><path d="M107.85,162a3.59,3.59,0,0,1,4.54-.2" style="fill:none;stroke:#263238;stroke-linecap:round;stroke-miterlimit:10"></path><path d="M104.29,176.67a6,6,0,0,0,3.75,1.78" style="fill:none;stroke:#263238;stroke-linecap:round;stroke-miterlimit:10"></path><path d="M76.21,148s-7.32-6.53-10.88-7.32-8.7,3.76-9.88,9.1,1.78,11.46,6.92,12.85,7.51-.4,9.29-2.57S76.21,148,76.21,148Z" style="fill:#263238;stroke:#263238;stroke-linecap:round;stroke-miterlimit:10"></path><path d="M69.29,186.16c4.94-6.92,10.48-7.32,10.48-7.32a35.93,35.93,0,0,0-7.71,10.48" style="fill:none;stroke:#263238;stroke-linecap:round;stroke-miterlimit:10"></path><path d="M99.15,187s-5.34-2.37-7.32-4a9.68,9.68,0,0,1-2.77-4.35s.59,6.73,2,9.5a57.49,57.49,0,0,0,4.35,6.72Z" style="fill:#263238;stroke:#263238;stroke-linecap:round;stroke-miterlimit:10"></path><path d="M98.68,212.79c-.88.64-2.39.73-4.87-.33-6.92-3-8.9-7.52-15-13.05-2.91-2.64-5.29-2.81-7-2.27-3.12,5.53-6.6,13.78-7.65,26.19a90.8,90.8,0,0,0,5.14,38,62.38,62.38,0,0,1-4.76,10.25c13.64,5,33.21,5.8,40.15,5.94.95-14.25,2.15-30.19,2.37-31.21.4-1.78,3-4.75,3.17-8.9C110.36,234.3,102.85,220.67,98.68,212.79Z" style="fill:#92E3A9;stroke:#263238;stroke-linecap:round;stroke-miterlimit:10"></path><path d="M89.85,166s4.35,0,5.93-2.77,1.59-3.95,4.75-4.94,4.74,1.38,12.26-3.36,8.5-8.9,7.12-10.48-14.24-9.89-28.08-8.31-21,17.4-21,26.5,4.35,15.22,8.9,16.21,6.52-8.3,6.92-8.9S89.85,166,89.85,166Z" style="fill:#263238;stroke:#263238;stroke-linecap:round;stroke-miterlimit:10"></path><path d="M91.43,167.18s-4.15-7.91-7.51-5.34-3,6.92-.4,9.69,5,1.38,5,1.38" style="fill:#fff;stroke:#263238;stroke-linecap:round;stroke-miterlimit:10"></path><rect x="123.97" y="233.9" width="29.5" height="39.34" style="fill:#fff;stroke:#263238;stroke-linecap:round;stroke-miterlimit:10"></rect><rect x="117.24" y="236.49" width="29.5" height="39.34" transform="translate(-71.42 52.04) rotate(-17.64)" style="fill:#92E3A9;stroke:#263238;stroke-linecap:round;stroke-miterlimit:10"></rect><rect x="114.91" y="239.85" width="29.5" height="39.34" transform="translate(-72.55 51.5) rotate(-17.64)" style="fill:#92E3A9;stroke:#263238;stroke-linecap:round;stroke-miterlimit:10"></rect><polygon points="121.12 289.54 110.77 246.06 141.31 240.11 144.16 250.72 143.12 253.31 149.85 282.55 121.12 289.54" style="fill:#fff;stroke:#263238;stroke-linecap:round;stroke-miterlimit:10"></polygon><polygon points="117.5 292.39 107.15 248.91 137.69 242.96 140.53 253.57 139.5 256.16 146.23 285.4 117.5 292.39" style="fill:#fff;stroke:#263238;stroke-linecap:round;stroke-miterlimit:10"></polygon><path d="M144.67,262.37s1-9.58,3.89-14.24,8.54-8.28,8.54-8.28,7.24,1.55,12.42,4.92a42.05,42.05,0,0,1,8.28,7s-13.72,4.91-16.56,10.61Z" style="fill:#fff;stroke:#263238;stroke-linecap:round;stroke-miterlimit:10"></path><path d="M157.1,239.85s.77-.52,3.62-.77a33.79,33.79,0,0,1,6.47.25s-3.37,1.3-11.91,8.29-9.31,9.57-9.31,9.57-.52-3.36,2.59-9.06A21.24,21.24,0,0,1,157.1,239.85Z" style="fill:#fff;stroke:#263238;stroke-linecap:round;stroke-miterlimit:10"></path><line x1="158.39" y1="245.8" x2="166.93" y2="250.46" style="fill:none;stroke:#263238;stroke-linecap:round;stroke-miterlimit:10"></line><line x1="155.03" y1="249.69" x2="160.98" y2="253.05" style="fill:none;stroke:#263238;stroke-linecap:round;stroke-miterlimit:10"></line><line x1="150.63" y1="254.09" x2="155.03" y2="256.41" style="fill:none;stroke:#263238;stroke-linecap:round;stroke-miterlimit:10"></line><path d="M105.17,260.27v49.07H164V260.27Zm41.34,9.29a4.2,4.2,0,0,1-4.2,4.2H126.84a4.2,4.2,0,0,1-4.2-4.2h0a4.2,4.2,0,0,1,4.2-4.2h15.47a4.2,4.2,0,0,1,4.2,4.2Z" style="fill:#fff;stroke:#263238;stroke-linecap:round;stroke-miterlimit:10"></path><path d="M67.51,245.87s3.16,30.85,5.54,31.44,8.3-.2,8.3-.2,37.57-10.28,38.36-10.28,5.14,3,6.92,3.36a5.74,5.74,0,0,0,4.15-.2,5.94,5.94,0,0,1,2.37-.59s2.57,1.58,3.76.79,1.58-.79,1.38-2a31.51,31.51,0,0,0-2.17-4.94l-1.19-2.57a32,32,0,0,0,4.35,1.19c.79,0,3.56-1.19,2.77-2.57s-3.16-1.78-7.12-3.37-6.92-2-7.91-1-2,1.58-2.37,2.17-5.34,1.58-6.92,2-32,1.58-32,1.58l-1.38-16Z" style="fill:#fff;stroke:#263238;stroke-linecap:round;stroke-miterlimit:10"></path><path d="M72.25,203s-4.74,1.39-6.32,7.72S63.16,228.47,63.36,232s1.38,12.46,1.38,12.46l21-1.19s-.79-26.89-.79-26.3" style="fill:#92E3A9;stroke:#263238;stroke-linecap:round;stroke-miterlimit:10"></path><polygon points="63.36 241.13 64.74 247.85 87.48 246.07 87.08 239.54 63.36 241.13" style="fill:#fff;stroke:#263238;stroke-linecap:round;stroke-miterlimit:10"></polygon><path d="M100.33,325.36S97.56,354,95,371.82s-7.31,38.76-8.1,47.06S85.5,440.63,85.7,442s11.47,8.9,14,10.09,8.3.79,7.31,3.16-2,1.78-6.32,2.37-12.26-.39-16.22-.39-10.48.59-12.06-.2.2-5.34,1.19-8.7,1.19-5.54,1.19-11.66,1.38-22.35-.6-38,1-32.23,1.39-34.4S79,354.22,79,353.24s.79-28.28.79-28.28Z" style="fill:#fff;stroke:#263238;stroke-linecap:round;stroke-miterlimit:10"></path><path d="M100.73,457.63c4.35-.59,5.34,0,6.32-2.37s-4.74-2-7.31-3.16a35.48,35.48,0,0,1-3.29-1.91L95,453.68s-14-1.3-21.91-3.53c-.94,3-1.94,6.24-.63,6.89,1.58.79,8.11.2,12.06.2S96.38,458.23,100.73,457.63Z" style="fill:#263238;stroke:#263238;stroke-linecap:round;stroke-miterlimit:10"></path><polygon points="92.03 321.4 105.67 320.02 105.87 327.73 91.24 328.52 92.03 321.4" style="fill:#fff;stroke:#263238;stroke-linecap:round;stroke-miterlimit:10"></polygon><path d="M57.82,321.6,60.59,370s-8.7,13.84-12.66,22.74c-2.66,6-7.18,18.15-11.86,27.29a67.94,67.94,0,0,1-6.92,10.28c-1.78,1.18-5.14,2.37-7.71,3.75s-4,2.38-3.56,5.54S25,449.33,27,454.87c1,2.79,2,3.95,6.32,4.15s8.51,1,8.11-1.19-3.76-5.14-4.55-7.12-.39-5.53,0-9.88c.42-4.61.4-4.75,1-5.74s26.69-32,33-44.48,7.51-16.22,8.31-18.59,9.68-45.87,9.68-45.87Z" style="fill:#fff;stroke:#263238;stroke-linecap:round;stroke-miterlimit:10"></path><path d="M41.41,457.83c-.25-1.34-1.62-3-2.83-4.52-3,.13-3.78.68-6.46-2C29.79,449,25.64,437.66,24,432.88c-.87.4-1.73.8-2.52,1.22-2.57,1.39-4,2.38-3.56,5.54S25,449.33,27,454.87c1,2.79,2,3.95,6.32,4.15S41.81,460,41.41,457.83Z" style="fill:#263238;stroke:#263238;stroke-linecap:round;stroke-miterlimit:10"></path><polygon points="55.05 315.87 56.24 324.17 91.24 328.52 92.03 321.4 55.05 315.87" style="fill:#fff;stroke:#263238;stroke-linecap:round;stroke-miterlimit:10"></polygon></g><g id="freepik--Floor--inject-2"><line x1="10.67" y1="459.32" x2="492.41" y2="459.32" style="fill:none;stroke:#263238;stroke-linecap:round;stroke-miterlimit:10"></line></g></svg>